<?xml version="1.0" encoding="UTF-8" standalone="no"?>
<svg width="200px" height="200px" viewBox="0 0 200 200" version="1.1" xmlns="http://www.w3.org/2000/svg" xmlns:xlink="http://www.w3.org/1999/xlink">
    <!-- Generator: Sketch 47.1 (45422) - http://www.bohemiancoding.com/sketch -->
    <title>VolumeOffPurple</title>
    <desc>Created with Sketch.</desc>
    <defs></defs>
    <g id="Page-1" stroke="none" stroke-width="1" fill="none" fill-rule="evenodd">
        <g id="VolumeOffPurple">
            <path d="M27,74 L53.372549,74 L53.372549,127 L27,127 L27,127 C24.2385763,127 22,124.761424 22,122 L22,79 C22,76.2385763 24.2385763,74 27,74 L27,74 Z M53.372549,74 L94.079123,44.7011151 L94.079123,44.7011151 C96.3203703,43.0879593 99.4449814,43.597128 101.058137,45.8383753 C101.67052,46.6891935 102,47.7109657 102,48.7592523 L102,152.240748 L102,152.240748 C102,155.002171 99.7614237,157.240748 97,157.240748 C95.9517134,157.240748 94.9299412,156.911268 94.079123,156.298885 L53.372549,127 L53.372549,74 Z" id="Combined-Shape" fill="#BE27AD"></path>
            <rect id="Rectangle-30" fill="#FFFFFF" transform="translate(68.804038, 110.193914) rotate(-43.000000) translate(-68.804038, -110.193914) " x="-11.1959618" y="98.2462805" width="160" height="23.8952678"></rect>
            <path d="M120.880302,61.793374 L29.5321063,146.840671" id="Line-2" stroke="#BE27AD" stroke-width="10" stroke-linecap="round"></path>
        </g>
    </g>
</svg>