<?xml version="1.0" encoding="UTF-8" standalone="no"?>
<svg width="115px" height="115px" viewBox="0 0 115 115" version="1.1" xmlns="http://www.w3.org/2000/svg" xmlns:xlink="http://www.w3.org/1999/xlink">
    <!-- Generator: Sketch 47.1 (45422) - http://www.bohemiancoding.com/sketch -->
    <title>ForBarnaShort</title>
    <desc>Created with Sketch.</desc>
    <defs>
        <path d="M20.6266969,87.2447216 C16.0108312,84.0372966 11.6918286,31.4355277 18.6484687,19.8887979 C25.6051089,8.34206814 59.8961953,17.2571016 62.6563172,17.7087513 C65.4164391,18.160401 66.1259439,25.0206778 62.6563172,27.2464553 C59.1866905,29.4722328 36.4525219,24.3791928 32.5675446,27.2464553 C28.6825673,30.1137178 29.3419767,46.0982207 32.5675446,48.389149 C35.7931125,50.6800773 54.7764003,47.4127686 57.2953962,48.389149 C59.8143922,49.3655294 62.3124455,56.2868064 57.2953962,57.9738368 C52.278347,59.6608671 35.1337032,55.1704722 32.5675446,57.9738368 C30.001386,60.7772014 35.9360704,85.9617516 32.5675446,87.2447216 C29.1990188,88.5276916 25.2425625,90.4521465 20.6266969,87.2447216 Z" id="path-1"></path>
        <filter x="-7.0%" y="-4.7%" width="114.0%" height="109.4%" filterUnits="objectBoundingBox" id="filter-2">
            <feGaussianBlur stdDeviation="1.5" in="SourceAlpha" result="shadowBlurInner1"></feGaussianBlur>
            <feOffset dx="0" dy="1" in="shadowBlurInner1" result="shadowOffsetInner1"></feOffset>
            <feComposite in="shadowOffsetInner1" in2="SourceAlpha" operator="arithmetic" k2="-1" k3="1" result="shadowInnerInner1"></feComposite>
            <feColorMatrix values="0 0 0 0 0   0 0 0 0 0   0 0 0 0 0  0 0 0 0.5 0" type="matrix" in="shadowInnerInner1"></feColorMatrix>
        </filter>
        <filter x="-7.0%" y="-4.7%" width="114.0%" height="109.4%" filterUnits="objectBoundingBox" id="filter-3">
            <feGaussianBlur stdDeviation="1.5" in="SourceAlpha" result="shadowBlurInner1"></feGaussianBlur>
            <feOffset dx="0" dy="1" in="shadowBlurInner1" result="shadowOffsetInner1"></feOffset>
            <feComposite in="shadowOffsetInner1" in2="SourceAlpha" operator="arithmetic" k2="-1" k3="1" result="shadowInnerInner1"></feComposite>
            <feColorMatrix values="0 0 0 0 0   0 0 0 0 0   0 0 0 0 0  0 0 0 0.5 0" type="matrix" in="shadowInnerInner1"></feColorMatrix>
        </filter>
    </defs>
    <g id="Page-1" stroke="none" stroke-width="1" fill="none" fill-rule="evenodd">
        <g id="ForBarnaShort">
            <path d="M52.5214399,98.363116 C46.6295751,93.9771521 44.6656202,40.7190192 50.557485,35.7064891 C56.4493498,30.6939589 89.230171,31.8295993 95.1150855,46.0888572 C98.3333471,53.8867652 96.4489522,60.9728263 81.8761627,64.4857559 C98.9119588,67.6822053 101,74.6885036 101,84.3295945 C101,103.774037 58.4133047,102.74908 52.5214399,98.363116 Z M64.0091088,91.4592235 C69.6800709,94.699964 86.7080648,91.4592235 87.5487668,81.0876808 C88.3894689,70.7161381 66.1184177,66.181448 62.541657,72.0147808 C58.9648963,77.8481136 58.3381467,88.2184831 64.0091088,91.4592235 Z M62.541657,60.1658236 C68.4140043,62.3913456 85.0266606,58.4036709 84.4623068,48.867539 C83.897953,39.331407 68.0456863,37.7231043 62.541657,40.5599768 C57.0376278,43.3968493 56.6693098,57.9403015 62.541657,60.1658236 Z" id="Path" stroke="#FFFFFF" stroke-width="3" fill="#FDF300"></path>
            <g id="F">
                <use fill="#F6307C" fill-rule="evenodd" xlink:href="#path-1"></use>
                <use fill="black" fill-opacity="1" filter="url(#filter-2)" xlink:href="#path-1"></use>
                <use fill="black" fill-opacity="1" filter="url(#filter-3)" xlink:href="#path-1"></use>
            </g>
        </g>
    </g>
</svg>