<?xml version="1.0" encoding="UTF-8" standalone="no"?>
<svg width="115px" height="115px" viewBox="0 0 115 115" version="1.1" xmlns="http://www.w3.org/2000/svg" xmlns:xlink="http://www.w3.org/1999/xlink">
    <!-- Generator: Sketch 47.1 (45422) - http://www.bohemiancoding.com/sketch -->
    <title>ForBarnaShort</title>
    <desc>Created with Sketch.</desc>
    <defs>
        <path d="M5.62669688,73.2447216 C1.01083124,70.0372966 -3.30817139,17.4355277 3.64846875,5.88879791 C10.6051089,-5.65793186 44.8961953,3.25710158 47.6563172,3.70875128 C50.4164391,4.16040097 51.1259439,11.0206778 47.6563172,13.2464553 C44.1866905,15.4722328 21.4525219,10.3791928 17.5675446,13.2464553 C13.6825673,16.1137178 14.3419767,32.0982207 17.5675446,34.389149 C20.7931125,36.6800773 39.7764003,33.4127686 42.2953962,34.389149 C44.8143922,35.3655294 47.3124455,42.2868064 42.2953962,43.9738368 C37.278347,45.6608671 20.1337032,41.1704722 17.5675446,43.9738368 C15.001386,46.7772014 20.9360704,71.9617516 17.5675446,73.2447216 C14.1990188,74.5276916 10.2425625,76.4521465 5.62669688,73.2447216 Z" id="path-1"></path>
        <filter x="-8.0%" y="-5.3%" width="116.0%" height="110.7%" filterUnits="objectBoundingBox" id="filter-2">
            <feGaussianBlur stdDeviation="1.5" in="SourceAlpha" result="shadowBlurInner1"></feGaussianBlur>
            <feOffset dx="0" dy="1" in="shadowBlurInner1" result="shadowOffsetInner1"></feOffset>
            <feComposite in="shadowOffsetInner1" in2="SourceAlpha" operator="arithmetic" k2="-1" k3="1" result="shadowInnerInner1"></feComposite>
            <feColorMatrix values="0 0 0 0 0   0 0 0 0 0   0 0 0 0 0  0 0 0 0.5 0" type="matrix" in="shadowInnerInner1"></feColorMatrix>
        </filter>
        <filter x="-8.0%" y="-5.3%" width="116.0%" height="110.7%" filterUnits="objectBoundingBox" id="filter-3">
            <feGaussianBlur stdDeviation="1.5" in="SourceAlpha" result="shadowBlurInner1"></feGaussianBlur>
            <feOffset dx="0" dy="1" in="shadowBlurInner1" result="shadowOffsetInner1"></feOffset>
            <feComposite in="shadowOffsetInner1" in2="SourceAlpha" operator="arithmetic" k2="-1" k3="1" result="shadowInnerInner1"></feComposite>
            <feColorMatrix values="0 0 0 0 0   0 0 0 0 0   0 0 0 0 0  0 0 0 0.5 0" type="matrix" in="shadowInnerInner1"></feColorMatrix>
        </filter>
    </defs>
    <g id="Page-1" stroke="none" stroke-width="1" fill="none" fill-rule="evenodd">
        <g id="ForBarnaShort">
            <g id="Group" transform="translate(15.000000, 14.000000)">
                <path d="M37.5214399,84.363116 C31.6295751,79.9771521 29.6656202,26.7190192 35.557485,21.7064891 C41.4493498,16.6939589 74.230171,17.8295993 80.1150855,32.0888572 C83.3333471,39.8867652 81.4489522,46.9728263 66.8761627,50.4857559 C83.9119588,53.6822053 86,60.6885036 86,70.3295945 C86,89.7740372 43.4133047,88.7490799 37.5214399,84.363116 Z M49.0091088,77.4592235 C54.6800709,80.699964 71.7080648,77.4592235 72.5487668,67.0876808 C73.3894689,56.7161381 51.1184177,52.181448 47.541657,58.0147808 C43.9648963,63.8481136 43.3381467,74.2184831 49.0091088,77.4592235 Z M47.541657,46.1658236 C53.4140043,48.3913456 70.0266606,44.4036709 69.4623068,34.867539 C68.897953,25.331407 53.0456863,23.7231043 47.541657,26.5599768 C42.0376278,29.3968493 41.6693098,43.9403015 47.541657,46.1658236 Z" id="Path" stroke="#FFFFFF" stroke-width="4" fill="#FDF300"></path>
                <g id="F">
                    <use fill="#F6307C" fill-rule="evenodd" xlink:href="#path-1"></use>
                    <use fill="black" fill-opacity="1" filter="url(#filter-2)" xlink:href="#path-1"></use>
                    <use fill="black" fill-opacity="1" filter="url(#filter-3)" xlink:href="#path-1"></use>
                </g>
            </g>
        </g>
    </g>
</svg>