<?xml version="1.0" encoding="UTF-8" standalone="no"?>
<svg width="422px" height="115px" viewBox="0 0 422 115" version="1.1" xmlns="http://www.w3.org/2000/svg" xmlns:xlink="http://www.w3.org/1999/xlink">
    <!-- Generator: Sketch 47.1 (45422) - http://www.bohemiancoding.com/sketch -->
    <title>Logo</title>
    <desc>Created with Sketch.</desc>
    <defs>
        <path d="M309.498639,98.2878083 C307.308445,98.0749675 305.199813,97.4418734 304.561771,96.7433019 C303.639018,95.7330095 303.398417,95.1626755 303.839969,95.0322997 C299.391485,99.4746519 271.11764,100.425017 268.13659,76.3925912 C264.983383,77.964026 257.679831,77.1433634 254.579735,75.2670129 C250.906386,73.0436971 254.579735,44.8816972 254.579735,44.8816972 C254.579735,44.8816972 254.579735,30.8006972 249.361919,29.3184867 C244.144103,27.8362762 241.154689,29.3184867 237.051074,38.2117498 C232.94746,47.105013 236.638577,72.3025918 234.793018,75.2670129 C232.94746,78.2314339 222.030135,78.9725392 219.965503,75.2670129 C218.841373,73.2494638 218.13415,57.2063576 218.162592,42.2216848 C213.695112,43.3644613 209.016247,45.0350601 207.012297,48.5617917 C208.351471,73.0298047 208.351471,85.7626514 207.012297,86.7603318 C205.164425,88.1369916 198.053906,88.8804518 194.791799,86.6607737 C194.87076,91.4832056 194.806594,94.9202012 194.551444,95.5995384 C193.528819,98.3222761 185.400743,97.1149768 184.046063,95.5995384 C183.142944,94.5892461 182.907462,94.018912 183.339619,93.8885362 C179.099398,98.2149644 152.741857,99.229276 148.67401,77.079564 C135.612927,85.9023945 109.84292,84.2247746 105.251319,80.3457042 C102.061493,77.6508796 99.9657632,59.5068247 99.5270349,41.7086887 C94.5093382,42.8777869 88.5865869,44.4712968 86.2622973,48.5617917 C87.6014708,73.0298047 87.6014708,85.7626514 86.2622973,86.7603318 C84.5278594,88.052483 78.1570568,88.7867886 74.6839473,87.0365904 C73.5877767,89.0403717 72.2302682,90.9097864 70.6114194,92.6448411 C65.5642334,97.9824307 59.3715619,100.651185 52.0332192,100.651185 C44.7612867,100.651185 38.6682293,97.9279663 33.753864,92.4814463 C28.8394987,87.1075466 26.3823529,80.3539632 26.3823529,72.2204934 C26.3823529,64.5590554 28.8893057,58.0414842 33.9032865,52.6675846 C34.4112022,52.1232092 34.9303613,51.6064068 35.4607641,51.1171773 C28.4605224,50.3970068 19.9562634,48.7962641 18.1824087,50.9662771 C15.5264346,54.2154149 21.6688329,83.4046524 18.1824087,84.8916321 C14.6959844,86.3786118 10.6010522,88.6090814 5.82363127,84.8916321 C1.04621033,81.1741828 -3.42395738,20.2080146 3.77616515,6.82519716 C10.9762877,-6.55762025 46.4675621,3.77502519 49.3242883,4.29849335 C52.1810145,4.82196152 52.9153519,12.773116 49.3242883,15.3528225 C45.7332247,17.932529 22.2033602,12.0296262 18.1824087,15.3528225 C14.1614571,18.6760189 14.8439459,37.2022759 18.1824087,39.8574931 C21.5208715,42.5127103 41.1685743,38.7258549 43.7757351,39.8574931 C45.0929549,40.4292324 46.4046417,42.7597605 46.7104858,45.1781086 C48.4734696,44.7972193 50.3141229,44.6067753 52.2324492,44.6067753 C59.4711764,44.6067753 65.6140409,47.3118397 70.6612269,52.7220495 C70.7897052,52.861605 70.9165264,53.0019818 71.0416906,53.14318 C71.1408011,41.266387 71.843575,30.1551096 73.2832727,27.6477713 C76.5400252,21.9759001 83.61606,24.0263086 84.9391787,26.5853002 C86.2622973,29.1442918 84.9391787,37.9297734 86.2622973,37.9297734 C87.1604403,37.9297734 93.8118977,32.502469 99.4932249,29.7181751 C99.7434585,17.7070051 100.905495,7.72024275 103.184674,5.51968014 C109.38461,-0.466401782 143.879461,0.889806733 150.072083,17.9185495 C153.45862,27.2309954 151.475695,35.693337 136.140929,39.8885604 C147.20732,42.2450342 152.279546,46.3353582 154.541022,51.8294127 C163.097763,42.1352354 177.560061,42.3498781 180.659365,45.8563535 C180.207805,44.8489477 180.659365,43.8581396 182.014044,42.8839292 C184.046063,41.4226136 189.464781,39.9115049 191.4968,42.8839292 C191.659937,43.1225648 191.823159,43.645107 191.984872,44.4058407 C192.293401,36.1965515 192.957678,29.5209973 194.033273,27.6477713 C197.290025,21.9759001 204.36606,24.0263086 205.689179,26.5853002 C207.012297,29.1442918 205.689179,37.9297734 207.012297,37.9297734 C207.812012,37.9297734 213.173114,33.6268552 218.34925,30.7181845 C218.602354,23.1235402 219.121501,17.178926 219.965503,15.6673857 C222.688422,10.7908552 233.218898,12.3917583 234.793018,15.6673857 C235.842432,17.8511373 235.842432,21.596469 234.793018,26.903381 C239.635361,18.508006 245.880221,14.3103814 253.527783,14.3103814 C261.175346,14.3103814 264.596535,14.6786709 269.40725,33.1456006 C271.444314,40.9652931 272.039349,49.183602 271.928446,56.2859163 C279.995737,43.2696679 297.60908,43.1330053 301.101448,47.000117 C300.640072,45.9927112 301.101448,45.0019031 302.485577,44.0276927 C304.561771,42.566377 310.098287,41.0552684 312.17448,44.0276927 C313.795126,46.3479235 315.424008,75.5072084 315.563832,89.4864467 C315.827734,89.4142995 316.096843,89.3558274 316.370442,89.3117885 C315.184582,74.5085282 315.169118,40.2097486 317.377268,36.2551282 C320.100187,31.3785976 330.630662,32.9795008 332.204783,36.2551282 C333.254196,38.4388797 333.254196,42.1842115 332.204783,47.4911234 C337.047126,39.0957484 343.291985,34.8981239 350.939548,34.8981239 C356.697459,34.8981239 360.059564,35.1068963 363.422735,43.0917777 C364.620814,39.0023256 366.736875,35.3316948 369.770934,32.0798421 C374.784914,26.7059424 380.894574,24.0190329 388.100096,24.0190329 C395.338823,24.0190329 401.481688,26.7240972 406.528874,32.134307 C411.50965,37.5445168 414,44.1891715 414,52.0684704 C414,60.0203895 411.493047,66.683199 406.479066,72.0570986 C401.43188,77.3946882 395.239209,80.0634429 387.900866,80.0634429 C380.628934,80.0634429 374.535876,77.3402238 369.621511,71.8937039 C369.508176,71.7697713 369.396148,71.6451049 369.285427,71.5197047 C369.727786,83.6429827 367.891927,93.8405461 366.819015,95.8547554 C365.239951,98.8191764 355.664849,98.0780711 351.9915,95.8547554 C348.318151,93.6314396 351.9915,65.4694397 351.9915,65.4694397 C351.9915,65.4694397 351.9915,51.3884397 346.773684,49.9062292 C341.555868,48.4240186 338.566454,49.9062292 334.462839,58.7994923 C330.359224,67.6927554 334.050341,92.8903343 332.204783,95.8547554 C331.361787,97.2088145 328.626067,98.0990032 325.705824,98.3134395 C325.45068,102.808146 321.920435,106.370003 317.602941,106.370003 C313.277243,106.370003 309.741789,102.794597 309.498639,98.2878083 Z M162.354,69.6163515 C162.442013,75.9948542 167.94202,82.3509699 173.520875,82.3509699 C179.09973,82.3509699 184.762438,75.9182339 184.675482,69.6163515 C184.588526,63.3144692 178.667746,57.1881735 173.173668,57.1881735 C167.679591,57.1881735 162.265987,63.2378489 162.354,69.6163515 Z M118.106671,71.7761239 C124.115541,75.6068199 142.158158,71.7761239 143.048954,59.5165097 C143.93975,47.2568955 120.341664,41.8966948 116.55178,48.7919477 C112.761896,55.6872005 112.097801,67.9454279 118.106671,71.7761239 Z M116.079543,33.6076351 C122.219739,36.2160178 139.590128,31.5423361 139.000033,20.365686 C138.409938,9.18903593 121.834621,7.30405394 116.079543,10.6289588 C110.324465,13.9538636 109.939347,30.9992524 116.079543,33.6076351 Z M36.5296857,64.2676859 C36.5657086,71.3287593 40.0129811,75.488389 45.6585157,75.488389 C51.3040503,75.488389 54.7941176,71.6796856 54.7941176,64.6226361 C54.7941176,57.5655866 51.2725172,53.7568831 45.6427491,53.7568831 C40.0129811,53.7568831 36.4936628,57.2066124 36.5296857,64.2676859 Z M372.397333,44.8237069 C372.433356,51.8847803 375.880628,56.04441 381.526163,56.04441 C387.171697,56.04441 390.661765,52.2357066 390.661765,45.1786571 C390.661765,38.1216076 387.140164,34.3129041 381.510396,34.3129041 C375.880628,34.3129041 372.36131,37.7626334 372.397333,44.8237069 Z M284.118513,75.3630271 C284.190524,80.581802 288.690529,85.7822603 293.255047,85.7822603 C297.819566,85.7822603 302.45269,80.5191126 302.381544,75.3630271 C302.310398,70.2069416 297.466124,65.1945178 292.970969,65.1945178 C288.475815,65.1945178 284.046503,70.1442522 284.118513,75.3630271 Z" id="path-1"></path>
        <filter x="-1.7%" y="-4.7%" width="103.4%" height="113.2%" filterUnits="objectBoundingBox" id="filter-2">
            <feOffset dx="0" dy="2" in="SourceAlpha" result="shadowOffsetOuter1"></feOffset>
            <feGaussianBlur stdDeviation="2" in="shadowOffsetOuter1" result="shadowBlurOuter1"></feGaussianBlur>
            <feColorMatrix values="0 0 0 0 0   0 0 0 0 0   0 0 0 0 0  0 0 0 0.5 0" type="matrix" in="shadowBlurOuter1"></feColorMatrix>
        </filter>
        <path d="M357.117647,51.8509261 C357.117647,45.3314 359.526288,39.7852512 364.343642,35.2123135 C369.160996,30.6393758 375.031061,28.3529412 381.954014,28.3529412 C388.90887,28.3529412 394.810837,30.6548246 399.660095,35.2586606 C404.445546,39.8624966 406.838235,45.5167875 406.838235,52.221703 C406.838235,58.9884149 404.429594,64.6581547 399.61224,69.2310924 C394.762983,73.773132 388.813162,76.0441176 381.762597,76.0441176 C374.775838,76.0441176 368.921724,73.7267853 364.200079,69.0920511 C359.478434,64.5191134 357.117647,58.7721292 357.117647,51.8509261 Z M367.584593,45.1757846 C367.618032,51.0415532 370.818006,54.4970371 376.058545,54.4970371 C381.299084,54.4970371 384.538783,51.3330744 384.538783,45.4706485 C384.538783,39.6082227 381.269813,36.44426 376.043909,36.44426 C370.818006,36.44426 367.551154,39.310016 367.584593,45.1757846 Z" id="path-3"></path>
        <filter x="-6.0%" y="-6.3%" width="112.1%" height="112.6%" filterUnits="objectBoundingBox" id="filter-4">
            <feGaussianBlur stdDeviation="1.5" in="SourceAlpha" result="shadowBlurInner1"></feGaussianBlur>
            <feOffset dx="0" dy="1" in="shadowBlurInner1" result="shadowOffsetInner1"></feOffset>
            <feComposite in="shadowOffsetInner1" in2="SourceAlpha" operator="arithmetic" k2="-1" k3="1" result="shadowInnerInner1"></feComposite>
            <feColorMatrix values="0 0 0 0 0   0 0 0 0 0   0 0 0 0 0  0 0 0 0.5 0" type="matrix" in="shadowInnerInner1"></feColorMatrix>
        </filter>
        <filter x="-6.0%" y="-6.3%" width="112.1%" height="112.6%" filterUnits="objectBoundingBox" id="filter-5">
            <feGaussianBlur stdDeviation="1.5" in="SourceAlpha" result="shadowBlurInner1"></feGaussianBlur>
            <feOffset dx="0" dy="1" in="shadowBlurInner1" result="shadowOffsetInner1"></feOffset>
            <feComposite in="shadowOffsetInner1" in2="SourceAlpha" operator="arithmetic" k2="-1" k3="1" result="shadowInnerInner1"></feComposite>
            <feColorMatrix values="0 0 0 0 0   0 0 0 0 0   0 0 0 0 0  0 0 0 0.5 0" type="matrix" in="shadowInnerInner1"></feColorMatrix>
        </filter>
        <path d="M357.117647,51.8509261 C357.117647,45.3314 359.526288,39.7852512 364.343642,35.2123135 C369.160996,30.6393758 375.031061,28.3529412 381.954014,28.3529412 C388.90887,28.3529412 394.810837,30.6548246 399.660095,35.2586606 C404.445546,39.8624966 406.838235,45.5167875 406.838235,52.221703 C406.838235,58.9884149 404.429594,64.6581547 399.61224,69.2310924 C394.762983,73.773132 388.813162,76.0441176 381.762597,76.0441176 C374.775838,76.0441176 368.921724,73.7267853 364.200079,69.0920511 C359.478434,64.5191134 357.117647,58.7721292 357.117647,51.8509261 Z M367.584593,45.1757846 C367.618032,51.0415532 370.818006,54.4970371 376.058545,54.4970371 C381.299084,54.4970371 384.538783,51.3330744 384.538783,45.4706485 C384.538783,39.6082227 381.269813,36.44426 376.043909,36.44426 C370.818006,36.44426 367.551154,39.310016 367.584593,45.1757846 Z" id="path-6"></path>
        <filter x="-6.0%" y="-6.3%" width="112.1%" height="112.6%" filterUnits="objectBoundingBox" id="filter-7">
            <feGaussianBlur stdDeviation="1.5" in="SourceAlpha" result="shadowBlurInner1"></feGaussianBlur>
            <feOffset dx="0" dy="1" in="shadowBlurInner1" result="shadowOffsetInner1"></feOffset>
            <feComposite in="shadowOffsetInner1" in2="SourceAlpha" operator="arithmetic" k2="-1" k3="1" result="shadowInnerInner1"></feComposite>
            <feColorMatrix values="0 0 0 0 0   0 0 0 0 0   0 0 0 0 0  0 0 0 0.5 0" type="matrix" in="shadowInnerInner1"></feColorMatrix>
        </filter>
        <filter x="-6.0%" y="-6.3%" width="112.1%" height="112.6%" filterUnits="objectBoundingBox" id="filter-8">
            <feGaussianBlur stdDeviation="1.5" in="SourceAlpha" result="shadowBlurInner1"></feGaussianBlur>
            <feOffset dx="0" dy="1" in="shadowBlurInner1" result="shadowOffsetInner1"></feOffset>
            <feComposite in="shadowOffsetInner1" in2="SourceAlpha" operator="arithmetic" k2="-1" k3="1" result="shadowInnerInner1"></feComposite>
            <feColorMatrix values="0 0 0 0 0   0 0 0 0 0   0 0 0 0 0  0 0 0 0.5 0" type="matrix" in="shadowInnerInner1"></feColorMatrix>
        </filter>
        <path d="M32.4117647,68.0862202 C32.4117647,61.5666941 34.8204056,56.0205454 39.6377597,51.4476076 C44.4551138,46.8746699 50.3251791,44.5882353 57.2481317,44.5882353 C64.2029873,44.5882353 70.1049551,46.8901188 74.9542122,51.4939547 C79.7396633,56.0977907 82.1323529,61.7520816 82.1323529,68.4569971 C82.1323529,75.223709 79.723712,80.8934488 74.9063579,85.4663866 C70.0571008,90.0084261 64.1072792,92.2794118 57.0567146,92.2794118 C50.069956,92.2794118 44.215842,89.9620794 39.4941969,85.3273452 C34.7725518,80.7544075 32.4117647,75.0074233 32.4117647,68.0862202 Z M42.8787107,61.4110787 C42.9121494,67.2768473 46.1121236,70.7323312 51.3526625,70.7323312 C56.5932013,70.7323312 59.8329004,67.5683685 59.8329004,61.7059426 C59.8329004,55.8435168 56.5639303,52.6795541 51.338027,52.6795541 C46.1121236,52.6795541 42.845272,55.5453101 42.8787107,61.4110787 Z" id="path-9"></path>
        <filter x="-7.0%" y="-7.3%" width="114.1%" height="114.7%" filterUnits="objectBoundingBox" id="filter-10">
            <feGaussianBlur stdDeviation="1.5" in="SourceAlpha" result="shadowBlurInner1"></feGaussianBlur>
            <feOffset dx="0" dy="1" in="shadowBlurInner1" result="shadowOffsetInner1"></feOffset>
            <feComposite in="shadowOffsetInner1" in2="SourceAlpha" operator="arithmetic" k2="-1" k3="1" result="shadowInnerInner1"></feComposite>
            <feColorMatrix values="0 0 0 0 0   0 0 0 0 0   0 0 0 0 0  0 0 0 0.5 0" type="matrix" in="shadowInnerInner1"></feColorMatrix>
        </filter>
        <filter x="-7.0%" y="-7.3%" width="114.1%" height="114.7%" filterUnits="objectBoundingBox" id="filter-11">
            <feGaussianBlur stdDeviation="1.5" in="SourceAlpha" result="shadowBlurInner1"></feGaussianBlur>
            <feOffset dx="0" dy="1" in="shadowBlurInner1" result="shadowOffsetInner1"></feOffset>
            <feComposite in="shadowOffsetInner1" in2="SourceAlpha" operator="arithmetic" k2="-1" k3="1" result="shadowInnerInner1"></feComposite>
            <feColorMatrix values="0 0 0 0 0   0 0 0 0 0   0 0 0 0 0  0 0 0 0.5 0" type="matrix" in="shadowInnerInner1"></feColorMatrix>
        </filter>
        <path d="M11.6246653,79.3603036 C7.03459424,76.1491052 2.73972722,23.4854518 9.65749201,11.9251377 C16.5752568,0.364823516 50.6747165,9.29034523 53.4194142,9.74252628 C56.164112,10.1947073 56.8696518,17.0630551 53.4194142,19.2914511 C49.9691767,21.5198472 27.3620519,16.4208154 23.4987848,19.2914511 C19.6355177,22.1620869 20.2912421,38.165395 23.4987848,40.4590186 C26.7063275,42.7526421 45.5835322,39.4814895 48.0884514,40.4590186 C50.5933706,41.4365476 53.0774642,48.3659674 48.0884514,50.0549825 C43.0994386,51.7439976 26.0506031,47.2483198 23.4987848,50.0549825 C20.9469665,52.8616451 26.8484865,78.0758243 23.4987848,79.3603036 C20.1490831,80.644783 16.2147364,82.571502 11.6246653,79.3603036 Z" id="path-12"></path>
        <filter x="-7.1%" y="-4.7%" width="114.1%" height="109.4%" filterUnits="objectBoundingBox" id="filter-13">
            <feGaussianBlur stdDeviation="1.5" in="SourceAlpha" result="shadowBlurInner1"></feGaussianBlur>
            <feOffset dx="0" dy="1" in="shadowBlurInner1" result="shadowOffsetInner1"></feOffset>
            <feComposite in="shadowOffsetInner1" in2="SourceAlpha" operator="arithmetic" k2="-1" k3="1" result="shadowInnerInner1"></feComposite>
            <feColorMatrix values="0 0 0 0 0   0 0 0 0 0   0 0 0 0 0  0 0 0 0.5 0" type="matrix" in="shadowInnerInner1"></feColorMatrix>
        </filter>
        <filter x="-7.1%" y="-4.7%" width="114.1%" height="109.4%" filterUnits="objectBoundingBox" id="filter-14">
            <feGaussianBlur stdDeviation="1.5" in="SourceAlpha" result="shadowBlurInner1"></feGaussianBlur>
            <feOffset dx="0" dy="1" in="shadowBlurInner1" result="shadowOffsetInner1"></feOffset>
            <feComposite in="shadowOffsetInner1" in2="SourceAlpha" operator="arithmetic" k2="-1" k3="1" result="shadowInnerInner1"></feComposite>
            <feColorMatrix values="0 0 0 0 0   0 0 0 0 0   0 0 0 0 0  0 0 0 0.5 0" type="matrix" in="shadowInnerInner1"></feColorMatrix>
        </filter>
        <path d="M357.117647,51.8509261 C357.117647,45.3314 359.526288,39.7852512 364.343642,35.2123135 C369.160996,30.6393758 375.031061,28.3529412 381.954014,28.3529412 C388.90887,28.3529412 394.810837,30.6548246 399.660095,35.2586606 C404.445546,39.8624966 406.838235,45.5167875 406.838235,52.221703 C406.838235,58.9884149 404.429594,64.6581547 399.61224,69.2310924 C394.762983,73.773132 388.813162,76.0441176 381.762597,76.0441176 C374.775838,76.0441176 368.921724,73.7267853 364.200079,69.0920511 C359.478434,64.5191134 357.117647,58.7721292 357.117647,51.8509261 Z M367.584593,45.1757846 C367.618032,51.0415532 370.818006,54.4970371 376.058545,54.4970371 C381.299084,54.4970371 384.538783,51.3330744 384.538783,45.4706485 C384.538783,39.6082227 381.269813,36.44426 376.043909,36.44426 C370.818006,36.44426 367.551154,39.310016 367.584593,45.1757846 Z" id="path-15"></path>
        <filter x="-7.0%" y="-7.3%" width="114.1%" height="114.7%" filterUnits="objectBoundingBox" id="filter-16">
            <feGaussianBlur stdDeviation="1.5" in="SourceAlpha" result="shadowBlurInner1"></feGaussianBlur>
            <feOffset dx="0" dy="1" in="shadowBlurInner1" result="shadowOffsetInner1"></feOffset>
            <feComposite in="shadowOffsetInner1" in2="SourceAlpha" operator="arithmetic" k2="-1" k3="1" result="shadowInnerInner1"></feComposite>
            <feColorMatrix values="0 0 0 0 0   0 0 0 0 0   0 0 0 0 0  0 0 0 0.5 0" type="matrix" in="shadowInnerInner1"></feColorMatrix>
        </filter>
        <filter x="-7.0%" y="-7.3%" width="114.1%" height="114.7%" filterUnits="objectBoundingBox" id="filter-17">
            <feGaussianBlur stdDeviation="1.5" in="SourceAlpha" result="shadowBlurInner1"></feGaussianBlur>
            <feOffset dx="0" dy="1" in="shadowBlurInner1" result="shadowOffsetInner1"></feOffset>
            <feComposite in="shadowOffsetInner1" in2="SourceAlpha" operator="arithmetic" k2="-1" k3="1" result="shadowInnerInner1"></feComposite>
            <feColorMatrix values="0 0 0 0 0   0 0 0 0 0   0 0 0 0 0  0 0 0 0.5 0" type="matrix" in="shadowInnerInner1"></feColorMatrix>
        </filter>
    </defs>
    <g id="Page-1" stroke="none" stroke-width="1" fill="none" fill-rule="evenodd">
        <g id="frontPage" transform="translate(-289.000000, -122.000000)">
            <g id="Logo" transform="translate(293.000000, 124.000000)">
                <g id="Combined-Shape">
                    <use fill="black" fill-opacity="1" filter="url(#filter-2)" xlink:href="#path-1"></use>
                    <use fill="#41B4E5" fill-rule="evenodd" xlink:href="#path-1"></use>
                </g>
                <path d="M314.206261,86.1509766 C312.21954,83.0942621 311.586094,41.009513 314.206261,36.9868291 C316.826429,32.9641451 326.959527,34.2847412 328.474247,36.9868291 C329.48406,38.7882209 329.48406,41.8777712 328.474247,46.2554798 C333.13386,39.3300765 339.143065,35.8674268 346.50204,35.8674268 C353.861015,35.8674268 357.153103,36.1712314 361.782282,51.4047303 C366.41146,66.6382291 363.301758,83.705605 361.782282,86.1509766 C360.262805,88.5963482 351.049028,87.9850053 347.514296,86.1509766 C343.979563,84.3169479 347.514296,61.0859181 347.514296,61.0859181 C347.514296,61.0859181 347.514296,49.4704031 342.493378,48.2477174 C337.472461,47.0250316 334.595855,48.2477174 330.647094,55.583832 C326.698332,62.9199467 330.250162,83.705605 328.474247,86.1509766 C326.698332,88.5963482 316.192982,89.2076911 314.206261,86.1509766 Z" id="Path" stroke="#FFFFFF" stroke-width="2" fill="#FC6138"></path>
                <g id="o">
                    <use fill="#FB3535" fill-rule="evenodd" xlink:href="#path-3"></use>
                    <use fill="black" fill-opacity="1" filter="url(#filter-4)" xlink:href="#path-3"></use>
                    <use fill="black" fill-opacity="1" filter="url(#filter-5)" xlink:href="#path-3"></use>
                </g>
                <g id="n" transform="translate(219.117647, 16.176471)">
                    <path d="M1.72759339,53.6691445 C-0.249879353,50.5373362 -0.880376896,7.41869769 1.72759339,3.29718906 C4.33556369,-0.824319567 14.4214922,0.528719479 15.9291608,3.29718906 C16.9342733,5.14283545 16.9342733,8.3082862 15.9291608,12.7935413 C20.5670833,5.69800271 26.5483143,2.15028662 33.8730332,2.15028662 C41.1977522,2.15028662 44.4745146,2.46155472 49.0821443,18.0692926 C53.689774,33.6770304 50.5945477,51.1636979 49.0821443,53.6691445 C47.5697409,56.1745911 38.3988548,55.5482295 34.8805769,53.6691445 C31.3622989,51.7900595 34.8805769,27.9883166 34.8805769,27.9883166 C34.8805769,27.9883166 34.8805769,16.0874451 29.883032,14.8347218 C24.8854872,13.5819985 22.0222725,14.8347218 18.0918928,22.3510617 C14.1615131,29.8674016 17.6968086,51.1636979 15.9291608,53.6691445 C14.1615131,56.1745911 3.70506614,56.8009528 1.72759339,53.6691445 Z" id="Path" stroke="#FFFFFF" stroke-width="2" fill="#FDF300"></path>
                    <path d="M5.44682957,3.33934637 C7.08448779,3.33934637 8.7331055,4.39163394 10.3926827,6.49620909 C8.75502444,5.44392152 7.11736622,4.91777773 5.47970799,4.91777773 C3.84204976,4.91777773 2.20439153,5.44392152 0.566733304,6.49620909 C2.18247258,4.39163394 3.80917134,3.33934637 5.44682957,3.33934637 Z" id="Rectangle-2" fill-opacity="0.2" fill="#FFFFFF" transform="translate(5.479708, 4.917778) rotate(320.000000) translate(-5.479708, -4.917778) "></path>
                </g>
                <g id="o">
                    <use fill="#FB3535" fill-rule="evenodd" xlink:href="#path-6"></use>
                    <use fill="black" fill-opacity="1" filter="url(#filter-7)" xlink:href="#path-6"></use>
                    <use fill="black" fill-opacity="1" filter="url(#filter-8)" xlink:href="#path-6"></use>
                </g>
                <path d="M220.85332,69.9156825 C218.866599,66.858968 218.233153,24.7742189 220.85332,20.7515349 C223.473487,16.728851 233.606586,18.0494471 235.121306,20.7515349 C236.131119,22.5529268 236.131119,25.6424771 235.121306,30.0201857 C239.780919,23.0947824 245.790123,19.6321327 253.149099,19.6321327 C260.508074,19.6321327 263.800162,19.9359373 268.42934,35.1694361 C273.058519,50.402935 269.948817,67.4703109 268.42934,69.9156825 C266.909864,72.361054 257.696087,71.7497112 254.161355,69.9156825 C250.626622,68.0816538 254.161355,44.8506239 254.161355,44.8506239 C254.161355,44.8506239 254.161355,33.235109 249.140437,32.0124232 C244.11952,30.7897375 241.242914,32.0124232 237.294153,39.3485379 C233.345391,46.6846526 236.897221,67.4703109 235.121306,69.9156825 C233.345391,72.361054 222.840041,72.9723969 220.85332,69.9156825 Z" id="Path" stroke="#FFFFFF" stroke-width="3" fill="#FDF300"></path>
                <path d="M224.157224,19.2205882 C225.8484,19.2205882 227.550894,20.5735294 229.264706,23.2794118 C227.573529,21.9264706 225.882353,21.25 224.191176,21.25 C222.5,21.25 220.808824,21.9264706 219.117647,23.2794118 C220.786188,20.5735294 222.466047,19.2205882 224.157224,19.2205882 Z" id="Rectangle-2" fill-opacity="0.2" fill="#FFFFFF" transform="translate(224.191176, 21.250000) rotate(320.000000) translate(-224.191176, -21.250000) "></path>
                <path d="M285.857882,62.9899869 C289.916706,62.9899869 294.002692,65.0193986 298.11584,69.0782222 C294.057016,67.0488104 289.998193,66.0341045 285.939369,66.0341045 C281.880546,66.0341045 277.821722,67.0488104 273.762899,69.0782222 C277.767398,65.0193986 281.799059,62.9899869 285.857882,62.9899869 Z" id="Rectangle-2" fill-opacity="0.2" fill="#FFFFFF" transform="translate(285.939369, 66.034105) rotate(328.000000) translate(-285.939369, -66.034105) "></path>
                <path d="M194.989155,80.4046178 C192.246589,77.8915484 191.732403,36.1620813 194.989155,31.3997659 C198.245908,26.6374504 205.321942,28.3590501 206.645061,30.5076753 C207.96818,32.6563005 206.645061,40.0329198 207.96818,40.0329198 C209.291298,40.0329198 223.100458,30.1432312 227.899948,32.0280332 C232.699439,33.9128352 232.013797,39.5672412 228.306423,41.4520432 C224.599049,43.3368452 211.684322,43.4687293 207.96818,48.9599605 C209.307353,69.5042205 209.307353,80.1951953 207.96818,81.0328851 C205.959419,82.2894198 197.731721,82.9176871 194.989155,80.4046178 Z" id="Path" stroke="#FFFFFF" stroke-width="3" fill="#ABFF07"></path>
                <path d="M197.774871,30.3823529 C199.466047,30.3823529 201.168541,31.7352941 202.882353,34.4411765 C201.191176,33.0882353 199.5,32.4117647 197.808824,32.4117647 C196.117647,32.4117647 194.426471,33.0882353 192.735294,34.4411765 C194.403835,31.7352941 196.083694,30.3823529 197.774871,30.3823529 Z" id="Rectangle-2" fill-opacity="0.2" fill="#FFFFFF" transform="translate(197.808824, 32.411765) rotate(320.000000) translate(-197.808824, -32.411765) "></path>
                <path d="M183.248394,44.0126299 C185.236239,42.7691185 190.537158,41.4832356 192.525003,44.0126299 C194.512848,46.5420241 196.513634,86.5542295 195.513241,88.8711522 C194.512848,91.1880749 186.561468,90.1607196 185.236239,88.8711522 C184.352752,88.0114406 184.12239,87.5261129 184.545152,87.4151692 C180.047889,91.4067072 150.117647,92.0852453 150.117647,67.9218231 C150.117647,43.7584009 177.555319,42.2434447 181.923164,46.5420241 C181.481421,45.6847689 181.923164,44.8416375 183.248394,44.0126299 Z M164.032561,66.534003 C164.11612,71.9535558 169.33783,77.3540873 174.6344,77.3540873 C179.930969,77.3540873 185.307147,71.8884546 185.224591,66.534003 C185.142035,61.1795513 179.520843,55.9742884 174.304761,55.9742884 C169.08868,55.9742884 163.949001,61.1144501 164.032561,66.534003 Z" id="Combined-Shape" stroke="#FFFFFF" stroke-width="3" fill="#28F54E"></path>
                <path d="M166.271454,48.6470588 C170.330278,48.6470588 174.416264,50.6764706 178.529412,54.7352941 C174.470588,52.7058824 170.411765,51.6911765 166.352941,51.6911765 C162.294118,51.6911765 158.235294,52.7058824 154.176471,54.7352941 C158.18097,50.6764706 162.212631,48.6470588 166.271454,48.6470588 Z" id="Rectangle-2" fill-opacity="0.2" fill="#FFFFFF" transform="translate(166.352941, 51.691176) rotate(334.000000) translate(-166.352941, -51.691176) "></path>
                <path d="M109.954767,73.4078039 C104.086971,69.0227885 102.131038,15.7761734 107.998835,10.7647273 C113.866632,5.75328117 146.513544,6.88867591 152.374419,21.1448501 C155.579534,28.9410717 153.702837,36.0256004 139.189577,39.5377702 C156.155783,42.7335284 158.235294,49.7383114 158.235294,59.3773174 C158.235294,78.817555 115.822564,77.7928193 109.954767,73.4078039 Z M121.395509,66.5054045 C127.043306,69.7454441 144.001741,66.5054045 144.839009,56.1361047 C145.676277,45.766805 123.496202,41.2330956 119.934052,47.0651669 C116.371902,52.8972382 115.747713,63.2653649 121.395509,66.5054045 Z M119.934052,35.2187721 C125.782411,37.4438129 142.327205,33.4570006 141.765157,23.922931 C141.203108,14.3888613 125.415598,12.7809064 119.934052,15.6171654 C114.452507,18.4534244 114.085693,32.9937314 119.934052,35.2187721 Z" id="Path" stroke="#FFFFFF" stroke-width="3" fill="#258CE1"></path>
                <path d="M109.985835,12.1176471 C112.5226,12.1176471 115.076341,13.4705882 117.647059,16.1764706 C115.110294,14.8235294 112.573529,14.1470588 110.036765,14.1470588 C107.5,14.1470588 104.963235,14.8235294 102.426471,16.1764706 C104.929282,13.4705882 107.449071,12.1176471 109.985835,12.1176471 Z" id="Rectangle-2" fill-opacity="0.2" fill="#FFFFFF" transform="translate(110.036765, 14.147059) rotate(320.000000) translate(-110.036765, -14.147059) "></path>
                <path d="M79.3126845,77.3605001 C76.5701184,74.8474308 76.055932,33.1179637 79.3126845,28.3556482 C82.5694369,23.5933327 89.6454717,25.3149325 90.9685904,27.4635577 C92.2917091,29.6121829 90.9685904,36.9888021 92.2917091,36.9888021 C93.6148278,36.9888021 107.423987,27.0991135 112.223478,28.9839155 C117.022968,30.8687175 116.337327,36.5231235 112.629953,38.4079255 C108.922578,40.2927275 96.0078512,40.4246117 92.2917091,45.9158429 C93.6308826,66.4601028 93.6308826,77.1510777 92.2917091,77.9887675 C90.2829489,79.2453021 82.0552506,79.8735695 79.3126845,77.3605001 Z" id="Path" stroke="#FFFFFF" stroke-width="3" fill="#6F2FEF"></path>
                <path d="M82.0984001,30.3823529 C83.7895765,30.3823529 85.4920706,31.7352941 87.2058824,34.4411765 C85.5147059,33.0882353 83.8235294,32.4117647 82.1323529,32.4117647 C80.4411765,32.4117647 78.75,33.0882353 77.0588235,34.4411765 C78.7273647,31.7352941 80.4072236,30.3823529 82.0984001,30.3823529 Z" id="Rectangle-2" fill-opacity="0.2" fill="#FFFFFF" transform="translate(82.132353, 32.411765) rotate(320.000000) translate(-82.132353, -32.411765) "></path>
                <g id="o">
                    <use fill="#BE27AD" fill-rule="evenodd" xlink:href="#path-9"></use>
                    <use fill="black" fill-opacity="1" filter="url(#filter-10)" xlink:href="#path-9"></use>
                    <use fill="black" fill-opacity="1" filter="url(#filter-11)" xlink:href="#path-9"></use>
                </g>
                <g id="F">
                    <use fill="#F6307C" fill-rule="evenodd" xlink:href="#path-12"></use>
                    <use fill="black" fill-opacity="1" filter="url(#filter-13)" xlink:href="#path-12"></use>
                    <use fill="black" fill-opacity="1" filter="url(#filter-14)" xlink:href="#path-12"></use>
                </g>
                <path d="M15.6181883,10.0882353 C18.154953,10.0882353 20.7086942,11.4411765 23.2794118,14.1470588 C20.7426471,12.7941176 18.2058824,12.1176471 15.6691176,12.1176471 C13.1323529,12.1176471 10.5955882,12.7941176 8.05882353,14.1470588 C10.5616354,11.4411765 13.0814236,10.0882353 15.6181883,10.0882353 Z" id="Rectangle-2" fill-opacity="0.2" fill="#FFFFFF" transform="translate(15.669118, 12.117647) rotate(320.000000) translate(-15.669118, -12.117647) "></path>
                <ellipse id="dot" stroke="#FFFFFF" stroke-width="2" fill="#9B9B9B" cx="315.007353" cy="89.2352941" rx="7.61029412" ry="7.10294118"></ellipse>
                <path d="M314.206261,86.1509766 C312.21954,83.0942621 311.586094,41.009513 314.206261,36.9868291 C316.826429,32.9641451 326.959527,34.2847412 328.474247,36.9868291 C329.48406,38.7882209 329.48406,41.8777712 328.474247,46.2554798 C333.13386,39.3300765 339.143065,35.8674268 346.50204,35.8674268 C353.861015,35.8674268 357.153103,36.1712314 361.782282,51.4047303 C366.41146,66.6382291 363.301758,83.705605 361.782282,86.1509766 C360.262805,88.5963482 351.049028,87.9850053 347.514296,86.1509766 C343.979563,84.3169479 347.514296,61.0859181 347.514296,61.0859181 C347.514296,61.0859181 347.514296,49.4704031 342.493378,48.2477174 C337.472461,47.0250316 334.595855,48.2477174 330.647094,55.583832 C326.698332,62.9199467 330.250162,83.705605 328.474247,86.1509766 C326.698332,88.5963482 316.192982,89.2076911 314.206261,86.1509766 Z" id="Path" stroke="#FFFFFF" stroke-width="3" fill="#FC6138"></path>
                <g id="o">
                    <use fill="#FB3535" fill-rule="evenodd" xlink:href="#path-15"></use>
                    <use fill="black" fill-opacity="1" filter="url(#filter-16)" xlink:href="#path-15"></use>
                    <use fill="black" fill-opacity="1" filter="url(#filter-17)" xlink:href="#path-15"></use>
                </g>
                <path d="M302.130747,46.4538063 C304.118591,45.2102949 309.419511,43.924412 311.407356,46.4538063 C313.395201,48.9832006 315.395987,88.9954059 314.395594,91.3123287 C313.395201,93.6292514 305.443821,92.601896 304.118591,91.3123287 C303.235105,90.4526171 303.004743,89.9672894 303.427505,89.8563457 C298.930242,93.8478837 269,94.5264218 269,70.3629996 C269,46.1995773 296.437672,44.6846212 300.805517,48.9832006 C300.363773,48.1259454 300.805517,47.2828139 302.130747,46.4538063 Z M285.590139,72.2172213 C285.65793,76.5374943 289.89422,80.8426041 294.191243,80.8426041 C298.488265,80.8426041 302.849873,76.485598 302.782896,72.2172213 C302.71592,67.9488447 298.155536,63.799396 293.923812,63.799396 C289.692089,63.799396 285.522349,67.8969484 285.590139,72.2172213 Z" id="Combined-Shape" stroke="#FFFFFF" stroke-width="3" fill="#FF9D00"></path>
                <ellipse id="dot" stroke="#FFFFFF" stroke-width="3" fill="#9B9B9B" cx="315.007353" cy="89.2352941" rx="7.61029412" ry="7.10294118"></ellipse>
            </g>
        </g>
    </g>
</svg>